<svg id="Layer_1" data-name="Layer 1" xmlns="http://www.w3.org/2000/svg" xmlns:xlink="http://www.w3.org/1999/xlink" viewBox="0 0 1296 1296"><defs><style>.cls-1,.cls-6{fill:none;}.cls-2{fill:#231f20;}.cls-3{clip-path:url(#clip-path);}.cls-4{fill:#d4b16c;}.cls-5{fill:#fff;}.cls-6{stroke:#fff;stroke-miterlimit:10;stroke-width:12px;}</style><clipPath id="clip-path"><rect class="cls-1" x="233.79" y="420.31" width="828.42" height="348.95"/></clipPath></defs><circle class="cls-2" cx="648" cy="648" r="648" transform="translate(-268.41 648) rotate(-45)"/><g class="cls-3"><polygon class="cls-4" points="517.74 420.31 233.79 420.31 233.79 487.89 337.25 487.89 337.25 736.16 404.83 613.36 404.83 487.89 517.74 487.89 517.74 420.31"/><polygon class="cls-4" points="606.91 418.3 407.06 773.98 484.57 773.98 684.42 418.3 606.91 418.3"/><polygon class="cls-4" points="760.2 418.3 560.35 773.98 637.86 773.98 837.71 418.3 760.2 418.3"/><path class="cls-4" d="M896.31,417.22l-41.53,67.52A109.22,109.22,0,1,1,768.51,625L727,692.4a176.75,176.75,0,0,0,145.76,76.86c97.5,0,176.81-79.31,176.81-176.8C1049.6,502.94,982.73,428.76,896.31,417.22Z"/></g><path class="cls-5" d="M316.25,804.51h58.41a12.92,12.92,0,0,1,12.87,12.87v20a12.92,12.92,0,0,1-12.87,12.87H329.12a16.53,16.53,0,0,1-2.18-.19v25.64H316.25Zm60.59,32.86v-20a2.19,2.19,0,0,0-2.18-2.18H329.12a2.2,2.2,0,0,0-2.18,2.18v20a2.2,2.2,0,0,0,2.18,2.18h45.54a2.19,2.19,0,0,0,2.18-2.18Z"/><path class="cls-5" d="M394.66,875.69V804.31h10.69V865h60.59v10.69Z"/><path class="cls-5" d="M484.75,804.41h45.54a12.84,12.84,0,0,1,12.87,12.87v58.41H532.47v-25h-49.9v25H471.88V817.28a12.84,12.84,0,0,1,12.87-12.87Zm-2.18,35.64h49.9V817.28a2.2,2.2,0,0,0-2.18-2.18H484.75a2.19,2.19,0,0,0-2.18,2.18Z"/><path class="cls-5" d="M613.35,804.41H626L593.15,849v26.73H582.46V849l-32.87-44.55h12.58l25.64,32.47Z"/><path class="cls-5" d="M729.58,804.41H741L715,875.69h-8.71L686,820.15l-20.2,55.54-.2-.1.1.1h-8.61l-25.94-71.28h11.39l18.9,52,18.91-52h11.39l18.91,52Z"/><path class="cls-5" d="M815.51,804.41V815.1H760.86v19.6h43.95v10.69H760.86V865h54.65v10.69H750.17V804.41Z"/><path class="cls-5" d="M838.87,804.41h45.54a12.84,12.84,0,0,1,12.87,12.87v58.41H886.59v-25h-49.9v25H826V817.28a12.84,12.84,0,0,1,12.87-12.87Zm-2.18,35.64h49.9V817.28a2.2,2.2,0,0,0-2.18-2.18H838.87a2.07,2.07,0,0,0-1.53.64,2.1,2.1,0,0,0-.65,1.54Z"/><path class="cls-5" d="M979.75,817.38v20a12.45,12.45,0,0,1-3.77,9.06,12.3,12.3,0,0,1-9.1,3.81h-7.23l20.1,24v1.49H967.07l-21.38-25.45H921.34a16.39,16.39,0,0,1-2.18-.19v25.64H908.47V804.51h58.41a12.3,12.3,0,0,1,9.1,3.81A12.45,12.45,0,0,1,979.75,817.38Zm-58.41,22.17h45.54a2.19,2.19,0,0,0,2.17-2.18v-20a2.19,2.19,0,0,0-2.17-2.18H921.34a2.19,2.19,0,0,0-2.18,2.18v20a2.19,2.19,0,0,0,2.18,2.18Z"/><circle class="cls-6" cx="648" cy="648" r="530.32" transform="translate(-268.41 648) rotate(-45)"/></svg>